<svg width="147" height="147" viewBox="0 0 147 147" fill="none" xmlns="http://www.w3.org/2000/svg">
<g id="cookies-svgrepo-com 1" clip-path="url(#clip0_2_3)">
<g id="cookie">
<path id="Vector" d="M137.707 71.3065L130.718 72.7041C128.393 73.1692 126.055 71.9596 125.092 69.7923L117.606 52.9487C116.973 51.5226 115.717 50.4684 114.204 50.0897L110.304 49.1149C108.047 48.5508 106.464 46.5235 106.464 44.1973V17.17C106.464 15.907 105.993 14.6894 105.142 13.7557L95.7265 3.42377C87.2376 0.735566 78.0868 -0.463689 68.5732 0.162783C32.0084 2.57163 2.38757 32.3162 0.156447 68.8919C-2.44677 111.573 31.3971 147 73.5158 147C113.689 147 146.313 114.765 146.984 74.7515L140.968 71.7435C139.96 71.239 138.812 71.0854 137.707 71.3065Z" fill="#FFE08B"/>
<g id="Group">
<path id="Vector_2" d="M96.3261 124.189C95.8799 124.189 95.4403 124.164 94.9962 124.156C92.2112 127.28 88.1681 129.258 83.6536 129.258C77.0042 129.258 71.3665 124.983 69.3002 119.038C60.2048 115.438 52.001 110.083 45.1063 103.38C44.0633 103.694 42.98 103.913 41.8344 103.913C35.5355 103.913 30.4293 98.8072 30.4293 92.5084C30.4293 90.3085 31.0816 88.2726 32.1606 86.5305C32.0833 86.3924 32.0009 86.2583 31.9243 86.1196C24.013 85.5833 17.7572 79.0128 17.7572 70.9654C17.7572 66.2226 19.9294 61.9892 23.332 59.2002C23.0095 56.4064 22.8261 53.5703 22.8261 50.6894C22.8261 36.2338 27.0161 22.7646 34.2234 11.3974C13.6704 24.4287 0.0158081 47.3627 0.0158081 73.5C0.0158081 114.093 32.9228 147 73.5158 147C99.6531 147 122.587 133.345 135.618 112.792C124.251 120 110.782 124.189 96.3261 124.189Z" fill="#FFC567"/>
<path id="Vector_3" d="M57.0418 60.8276C60.5412 60.8276 63.378 57.9907 63.378 54.4913C63.378 50.9919 60.5412 48.1551 57.0418 48.1551C53.5424 48.1551 50.7056 50.9919 50.7056 54.4913C50.7056 57.9907 53.5424 60.8276 57.0418 60.8276Z" fill="#FFC567"/>
<path id="Vector_4" d="M124.206 102.646C127.705 102.646 130.542 99.8097 130.542 96.3103C130.542 92.8109 127.705 89.9741 124.206 89.9741C120.706 89.9741 117.869 92.8109 117.869 96.3103C117.869 99.8097 120.706 102.646 124.206 102.646Z" fill="#FFC567"/>
<path id="Vector_5" d="M66.5459 102.646C68.9954 102.646 70.9812 100.661 70.9812 98.2112C70.9812 95.7617 68.9954 93.7759 66.5459 93.7759C64.0964 93.7759 62.1107 95.7617 62.1107 98.2112C62.1107 100.661 64.0964 102.646 66.5459 102.646Z" fill="#FFC567"/>
<path id="Vector_6" d="M100.762 62.0946C103.211 62.0946 105.197 60.1088 105.197 57.6593C105.197 55.2098 103.211 53.224 100.762 53.224C98.3121 53.224 96.3264 55.2098 96.3264 57.6593C96.3264 60.1088 98.3121 62.0946 100.762 62.0946Z" fill="#FFC567"/>
<path id="Vector_7" d="M83.0203 22.8103C85.4698 22.8103 87.4556 20.8245 87.4556 18.375C87.4556 15.9255 85.4698 13.9397 83.0203 13.9397C80.5708 13.9397 78.585 15.9255 78.585 18.375C78.585 20.8245 80.5708 22.8103 83.0203 22.8103Z" fill="#FFC567"/>
</g>
<g id="Group_2">
<path id="Vector_8" d="M69.8276 65.2847L66.8976 70.1681C65.1462 73.0869 66.7127 76.8681 70.0148 77.6935L78.736 79.8739C81.452 80.5529 84.2043 78.9017 84.883 76.1856L85.8807 72.1948C86.0825 71.3875 86.0825 70.5434 85.8807 69.736L84.8259 65.5164C84.1698 62.8913 81.5675 61.2445 78.9143 61.775L73.1801 62.9217C71.7796 63.2023 70.5626 64.0601 69.8276 65.2847Z" fill="#B97850"/>
<path id="Vector_9" d="M84.4567 96.662L81.401 101.755C79.8819 104.287 80.8396 107.576 83.4805 108.897L93.2083 113.76C96.1087 115.211 99.6063 113.602 100.393 110.456L101.395 106.448L102.566 101.763C103.295 98.8469 101.341 95.9405 98.3651 95.5153L89.5195 94.2514C87.5012 93.9632 85.5057 94.9132 84.4567 96.662Z" fill="#B97850"/>
<path id="Vector_10" d="M31.1264 66.425L27.3971 72.6407C26.2004 74.6352 26.5148 77.1882 28.1594 78.833L34.0285 84.7024C36.1649 86.8388 39.6837 86.6438 41.5711 84.2847L46.6027 77.995C47.5909 76.7598 47.9458 75.1339 47.5619 73.599L46.4144 69.0087C45.9392 67.1081 44.4118 65.6518 42.491 65.2674L36.4669 64.0627C34.3664 63.6424 32.2286 64.5881 31.1264 66.425Z" fill="#B97850"/>
<path id="Vector_11" d="M51.7632 25.2711L48.8875 30.0641C47.2191 32.8447 48.5548 36.4554 51.6312 37.481L57.8715 39.5611C59.6929 40.168 61.7009 39.694 63.0587 38.3366L66.4176 34.9777C67.6766 33.7187 68.1827 31.8912 67.7509 30.164L66.8724 26.6501C66.3082 24.3931 64.2806 22.81 61.9545 22.81H56.1095C54.3294 22.8103 52.6794 23.7445 51.7632 25.2711Z" fill="#B97850"/>
<path id="Vector_12" d="M112.982 64.4474L110.048 67.3814C108.069 69.3607 108.069 72.5703 110.048 74.5499L111.484 75.9858C113.027 77.5287 115.384 77.9111 117.335 76.9352L125.638 72.7842C127.763 71.7216 128.865 69.326 128.289 67.0211L127.912 65.5169C127.256 62.8919 124.654 61.245 122.001 61.7756L115.573 63.0613C114.591 63.2571 113.69 63.7397 112.982 64.4474Z" fill="#B97850"/>
<path id="Vector_13" d="M94.1342 28.2676L90.7679 32.7563C89.5313 34.4049 89.4162 36.6386 90.4764 38.4057L93.5913 43.597C95.0802 46.0787 98.3415 46.812 100.75 45.2068L107.075 40.99C109.496 39.3759 110.064 36.0589 108.318 33.731L104.88 29.1465C104.261 28.3216 103.406 27.7049 102.427 27.379L99.7923 26.5005C97.7222 25.81 95.4432 26.522 94.1342 28.2676Z" fill="#B97850"/>
<path id="Vector_14" d="M50.7578 108.351L47.448 112.488C45.3231 115.144 46.3656 119.098 49.5238 120.361L53.9697 122.139C55.1784 122.623 56.5264 122.623 57.7348 122.139L62.7242 120.143C65.7136 118.948 66.8454 115.304 65.0595 112.625L64.2025 111.34C63.713 110.606 63.0409 110.013 62.2519 109.618L56.9834 106.984C54.8448 105.915 52.2507 106.485 50.7578 108.351Z" fill="#B97850"/>
</g>
<g id="Group_3">
<path id="Vector_15" d="M40.3182 84.1004L34.4491 78.2313C32.8045 76.5867 32.4899 74.0335 33.6868 72.0392L37.4161 65.8236C37.7342 65.2935 38.1545 64.8632 38.6193 64.4934L36.4672 64.0633C34.3667 63.6432 32.2286 64.589 31.1264 66.4256L27.3971 72.6413C26.2004 74.6358 26.5148 77.1888 28.1594 78.8336L34.0285 84.7027C36.0087 86.6829 39.1605 86.6353 41.1158 84.7426C40.8355 84.5569 40.5657 84.3481 40.3182 84.1004Z" fill="#A5694B"/>
<path id="Vector_16" d="M62.9482 37.7566L56.7078 35.6768C53.6318 34.6512 52.2955 31.0406 53.9642 28.2599L56.8399 23.4669C56.9861 23.2228 57.1793 23.0222 57.3604 22.8103H56.1092C54.3289 22.8103 52.6788 23.7445 51.7627 25.2714L48.887 30.0641C47.2183 32.8447 48.5539 36.4554 51.6306 37.481L57.8709 39.5611C59.6923 40.168 61.7004 39.694 63.0581 38.3366L63.5304 37.8643C63.3363 37.8241 63.1394 37.8203 62.9482 37.7566Z" fill="#A5694B"/>
<path id="Vector_17" d="M83.5454 78.4165L74.8241 76.2362C71.5218 75.4104 69.9553 71.6295 71.707 68.7107L74.6369 63.8273C74.9858 63.2459 75.4492 62.7552 75.9835 62.3616L73.1801 62.9223C71.7799 63.2023 70.5623 64.0604 69.8276 65.2852L66.8976 70.1687C65.1462 73.0874 66.7127 76.8687 70.0148 77.6941L78.736 79.8744C80.5732 80.3338 82.4107 79.7102 83.6278 78.4288C83.6002 78.4219 83.5729 78.4234 83.5454 78.4165Z" fill="#A5694B"/>
<path id="Vector_18" d="M98.3261 43.1586L95.2112 37.9674C94.1509 36.2002 94.2661 33.9671 95.5026 32.3179L98.869 27.8295C99.2376 27.3377 99.6953 26.9524 100.191 26.6329L99.7921 26.4999C97.722 25.81 95.4429 26.522 94.1337 28.2674L90.7676 32.7557C89.531 34.4046 89.4159 36.638 90.4762 38.4052L93.5911 43.5964C95.0751 46.0699 98.3186 46.8034 100.724 45.2194C99.7602 44.8184 98.9069 44.1264 98.3261 43.1586Z" fill="#A5694B"/>
<path id="Vector_19" d="M115.552 75.6481C113.572 73.6685 113.572 70.4592 115.552 68.4796L118.486 65.5456C119.193 64.8382 120.095 64.3556 121.076 64.1595L126.487 63.0774C125.329 61.9772 123.676 61.44 122.001 61.7753L115.572 63.061C114.591 63.2574 113.69 63.7397 112.982 64.4472L110.048 67.3811C108.069 69.3607 108.069 72.5701 110.048 74.5497L111.484 75.9855C112.931 77.4328 115.085 77.8121 116.958 77.0544L115.552 75.6481Z" fill="#A5694B"/>
<path id="Vector_20" d="M89.7599 108.471C87.119 107.151 86.161 103.862 87.6803 101.33L90.736 96.2371C91.1368 95.5695 91.7033 95.0634 92.3281 94.6531L89.5201 94.252C87.5012 93.9634 85.5061 94.9132 84.457 96.662L81.4013 101.755C79.8822 104.287 80.84 107.576 83.4808 108.897L93.2086 113.76C95.1475 114.73 97.3355 114.311 98.8196 113.002L89.7599 108.471Z" fill="#A5694B"/>
<path id="Vector_21" d="M59.0386 121.292L54.5927 119.514C51.4348 118.251 50.3923 114.297 52.5169 111.641L55.8267 107.504C56.0368 107.241 56.2728 107.011 56.5221 106.801C54.4819 106.02 52.1459 106.615 50.7578 108.351L47.448 112.488C45.3231 115.144 46.3656 119.098 49.5238 120.361L53.9697 122.139C55.1784 122.623 56.5264 122.623 57.7348 122.139L59.5083 121.43C59.3512 121.384 59.1913 121.353 59.0386 121.292Z" fill="#A5694B"/>
</g>
<path id="Vector_22" d="M20.2886 103.911C19.9087 103.911 19.5211 103.825 19.1576 103.644C17.9053 103.018 17.3977 101.496 18.0241 100.243L20.5587 95.1744C21.1852 93.9221 22.7034 93.4196 23.9593 94.0409C25.2116 94.6674 25.7192 96.1891 25.0928 97.4415L22.5582 102.51C22.114 103.399 21.2194 103.911 20.2886 103.911Z" fill="#C98850"/>
<path id="Vector_23" d="M65.9123 136.862H63.3777C61.978 136.862 60.8431 135.728 60.8431 134.327C60.8431 132.926 61.978 131.793 63.3777 131.793H65.9123C67.3119 131.793 68.4469 132.926 68.4469 134.327C68.4469 135.728 67.3119 136.862 65.9123 136.862Z" fill="#925F4A"/>
<path id="Vector_24" d="M55.7718 88.7067C55.392 88.7067 55.0044 88.6203 54.6409 88.4395C53.3885 87.813 52.8809 86.291 53.5074 85.0389L56.042 79.97C56.6671 78.7202 58.1856 78.2152 59.4425 78.8365C60.6949 79.463 61.2025 80.9847 60.576 82.237L58.0414 87.3059C57.5973 88.1945 56.7024 88.7067 55.7718 88.7067Z" fill="#C98850"/>
<g id="Group_4">
<path id="Vector_25" d="M40.5651 48.1551C40.1853 48.1551 39.7977 48.0687 39.4342 47.8878L34.3653 45.3532C33.1129 44.7268 32.6053 43.2051 33.2318 41.9527C33.8568 40.7029 35.3765 40.1953 36.6323 40.8192L41.7012 43.3535C42.9536 43.98 43.4612 45.5017 42.8347 46.754C42.3906 47.6426 41.4956 48.1551 40.5651 48.1551Z" fill="#925F4A"/>
<path id="Vector_26" d="M70.9815 12.6721H65.9126C64.5129 12.6721 63.378 11.5386 63.378 10.1375C63.378 8.73644 64.5129 7.60294 65.9126 7.60294H70.9815C72.3812 7.60294 73.5161 8.73644 73.5161 10.1375C73.5161 11.5386 72.3812 12.6721 70.9815 12.6721Z" fill="#925F4A"/>
</g>
<path id="Vector_27" d="M81.1219 50.6894C80.1911 50.6894 79.2965 50.1772 78.8523 49.2886L76.3177 44.2197C75.6912 42.9674 76.1989 41.4451 77.4512 40.8192C78.7062 40.1953 80.227 40.7029 80.8517 41.9527L83.3863 47.0216C84.0128 48.274 83.5052 49.7962 82.2528 50.4221C81.8888 50.603 81.5018 50.6894 81.1219 50.6894Z" fill="#C98850"/>
<g id="Group_5">
<path id="Vector_28" d="M11.5665 63.1C11.2257 62.9321 10.9165 62.6832 10.6699 62.3602C9.82288 61.245 10.0408 59.6553 11.1562 58.8086L15.6702 55.3817C16.7844 54.5344 18.373 54.7544 19.2217 55.868C20.0687 56.9832 19.8508 58.5729 18.7353 59.4196L14.2217 62.8462C13.4301 63.4469 12.4011 63.5112 11.5665 63.1Z" fill="#925F4A"/>
<path id="Vector_29" d="M106.464 91.2413C105.816 91.2413 105.167 90.9939 104.672 90.4989L99.6034 85.43C98.6135 84.44 98.6135 82.8359 99.6034 81.846C100.593 80.856 102.197 80.856 103.187 81.846L108.256 86.9149C109.246 87.9049 109.246 89.5089 108.256 90.4989C107.761 90.9939 107.112 91.2413 106.464 91.2413Z" fill="#925F4A"/>
</g>
<path id="Vector_30" d="M111.533 116.586C110.885 116.586 110.236 116.339 109.741 115.844C108.751 114.854 108.751 113.25 109.741 112.26L112.276 109.725C113.266 108.735 114.87 108.735 115.86 109.725C116.85 110.715 116.85 112.319 115.86 113.309L113.325 115.844C112.83 116.339 112.182 116.586 111.533 116.586Z" fill="#C98850"/>
</g>
<g id="crumbs">
<g id="Group_6">
<path id="Vector_31" d="M116.602 10.1378V16.5323C116.602 18.3256 118.413 19.5516 120.078 18.8855L127.681 15.8441C128.643 15.4591 129.274 14.5272 129.274 13.491V10.1378C129.274 8.73818 128.139 7.60324 126.74 7.60324H119.136C117.737 7.60324 116.602 8.73818 116.602 10.1378Z" fill="#FFE08B"/>
<path id="Vector_32" d="M122.021 30.1189L120.403 41.4408C120.023 44.104 121.79 46.6007 124.427 47.1282L129.069 48.0564C131.083 48.4595 133.141 47.6068 134.281 45.8976L136.026 43.2792C136.931 41.9226 137.127 40.214 136.555 38.6877L131.267 24.5875C130.61 22.8338 128.36 22.3466 127.036 23.671L123.455 27.2516C122.679 28.0271 122.176 29.0334 122.021 30.1189Z" fill="#FFE08B"/>
</g>
<g id="Group_7">
<path id="Vector_33" d="M134.727 43.5542L130.085 42.626C127.447 42.0983 125.681 39.6016 126.061 36.9387L127.679 25.6171C127.823 24.6073 128.294 23.6851 128.979 22.9346C128.291 22.8999 127.585 23.1212 127.036 23.6702L123.454 27.251C122.679 28.0265 122.176 29.0328 122.021 30.1184L120.404 41.44C120.023 44.1035 121.79 46.5999 124.427 47.1273L129.069 48.0555C131.083 48.4581 133.141 47.6059 134.281 45.8968L135.808 43.6062C135.449 43.6134 135.089 43.6269 134.727 43.5542Z" fill="#FFC567"/>
<path id="Vector_34" d="M125.147 13.8163C123.482 14.4821 121.671 13.2561 121.671 11.4631V7.60324H119.136C117.737 7.60324 116.602 8.73818 116.602 10.1378V16.5323C116.602 18.3256 118.412 19.5516 120.077 18.8855L127.681 15.8441C128.643 15.4591 129.274 14.5275 129.274 13.491V12.1654L125.147 13.8163Z" fill="#FFC567"/>
<path id="Vector_35" d="M135.607 55.2752L134.109 58.2714C133.752 58.9849 133.752 59.8247 134.109 60.5382L134.792 61.906C135.474 63.2694 137.197 63.7271 138.465 62.8816L142.551 60.1578C143.256 59.6875 143.68 58.8962 143.68 58.0489V55.3182C143.68 53.5884 141.985 52.3668 140.344 52.914L137.072 54.0044C136.435 54.2166 135.907 54.6737 135.607 55.2752Z" fill="#FFC567"/>
</g>
</g>
</g>
<defs>
<clipPath id="clip0_2_3">
<rect width="147" height="147" fill="white"/>
</clipPath>
</defs>
</svg>
